<?xml version="1.0" standalone="no"?>
<!DOCTYPE svg PUBLIC "-//W3C//DTD SVG 20010904//EN"
 "http://www.w3.org/TR/2001/REC-SVG-20010904/DTD/svg10.dtd">
<svg version="1.0" xmlns="http://www.w3.org/2000/svg"
 width="500.000000pt" height="500.000000pt" viewBox="0 0 500.000000 500.000000"
 preserveAspectRatio="xMidYMid meet">
<metadata>
Created by potrace 1.14, written by Peter Selinger 2001-2017
</metadata>
<g transform="translate(0.000000,500.000000) scale(0.100000,-0.100000)"
fill="#000000" stroke="none">
<path d="M808 3040 c-164 -20 -290 -79 -400 -190 -136 -136 -196 -303 -184
-515 11 -190 63 -321 170 -423 121 -117 281 -168 495 -160 106 4 124 8 206 42
178 74 204 82 222 70 10 -6 25 -30 33 -52 30 -86 37 -53 42 188 4 205 6 231
23 250 10 11 27 20 37 20 12 0 18 6 16 16 -3 13 -41 15 -306 17 -272 2 -302 0
-302 -14 0 -12 13 -18 50 -22 112 -13 124 -38 125 -259 0 -167 0 -168 -26
-193 -49 -50 -161 -42 -231 15 -47 39 -93 130 -120 236 -19 77 -22 116 -23
299 0 186 3 220 23 299 38 149 109 257 197 301 58 29 192 28 257 -2 95 -43
159 -126 188 -240 9 -36 15 -43 35 -43 24 0 25 3 25 63 0 35 3 112 7 170 6
102 5 107 -14 107 -15 0 -23 -12 -34 -47 -9 -31 -20 -49 -32 -51 -9 -2 -45 15
-78 37 -105 70 -250 99 -401 81z"/>
<path d="M2528 3040 c-186 -22 -362 -127 -457 -273 -23 -34 -41 -67 -41 -74 0
-10 43 -13 183 -13 l183 0 18 58 c29 90 61 146 110 189 96 85 229 85 353 1 57
-38 100 -103 120 -183 16 -60 20 -65 45 -65 l28 0 0 170 c0 163 -1 170 -20
170 -13 0 -20 -7 -20 -19 0 -10 -5 -32 -11 -50 -13 -38 -38 -40 -82 -7 -56 43
-159 85 -232 96 -78 11 -82 11 -177 0z"/>
<path d="M4022 2858 c-34 -90 -62 -166 -62 -170 0 -14 31 -8 36 7 4 8 10 15
15 15 5 0 9 -7 9 -15 0 -13 28 -15 191 -15 177 0 190 1 185 18 -3 9 -32 85
-65 167 l-58 150 -94 3 -94 3 -63 -163z"/>
<path d="M1933 2515 c0 -44 2 -61 4 -37 2 23 2 59 0 80 -2 20 -4 1 -4 -43z"/>
<path d="M2000 2515 c0 -43 4 -75 10 -75 6 0 10 32 10 75 0 43 -4 75 -10 75
-6 0 -10 -32 -10 -75z"/>
<path d="M2703 2515 c0 -44 2 -70 4 -58 6 32 30 35 52 8 27 -36 36 -31 11 6
-20 28 -21 31 -6 48 30 33 16 35 -18 2 l-35 -34 -4 54 c-2 38 -3 31 -4 -26z"/>
<path d="M3543 2515 c0 -44 2 -61 4 -37 2 23 2 59 0 80 -2 20 -4 1 -4 -43z"/>
<path d="M1622 2508 c0 -40 3 -59 5 -41 4 28 8 32 41 36 l37 4 -37 1 c-35 2
-38 4 -38 31 0 28 3 30 43 34 l42 4 -47 1 -48 2 2 -72z"/>
<path d="M2160 2559 c-14 -26 0 -45 41 -54 63 -14 43 -60 -21 -50 -26 4 -31 3
-20 -4 18 -13 60 -14 78 -2 26 16 9 53 -28 66 -24 8 -35 18 -35 31 0 15 7 19
37 18 21 -1 35 3 32 7 -3 5 -21 9 -39 9 -24 0 -38 -6 -45 -21z"/>
<path d="M2920 2510 l0 -70 45 0 c54 0 85 25 85 70 0 45 -31 70 -85 70 l-45 0
0 -70z m100 40 c39 -39 18 -87 -43 -97 l-37 -6 0 62 0 61 30 0 c17 0 39 -9 50
-20z"/>
<path d="M2301 2553 c-9 -10 -10 -17 -3 -22 6 -3 12 -24 14 -46 3 -34 7 -40
28 -42 14 -2 19 0 10 4 -21 9 -30 24 -30 56 0 17 5 27 15 27 8 0 15 5 15 10 0
6 -6 10 -14 10 -8 0 -16 4 -18 9 -1 5 -9 2 -17 -6z"/>
<path d="M1850 2517 c0 -45 -20 -71 -48 -63 -18 6 -22 15 -22 47 0 21 -4 39
-10 39 -13 0 -13 -56 0 -81 9 -15 20 -19 50 -17 l40 3 0 53 c0 28 -2 52 -5 52
-3 0 -5 -15 -5 -33z"/>
<path d="M2425 2540 c-17 -6 -15 -8 14 -11 46 -5 52 -27 9 -31 -28 -2 -33 -7
-33 -28 0 -22 4 -25 38 -26 37 -1 37 -1 37 40 0 59 -19 75 -65 56z m53 -67
c-4 -20 -35 -30 -50 -15 -15 15 0 32 28 32 19 0 25 -5 22 -17z"/>
<path d="M2572 2534 c-28 -20 -30 -69 -3 -84 26 -13 58 -13 67 1 4 7 0 9 -14
5 -28 -9 -62 10 -62 33 0 26 26 44 55 39 20 -4 23 -3 14 8 -15 18 -29 18 -57
-2z"/>
<path d="M3122 2534 c-28 -20 -30 -69 -3 -84 26 -13 58 -13 67 1 4 7 0 9 -14
5 -23 -8 -62 8 -62 24 0 6 20 10 45 10 33 0 45 4 45 14 0 13 -36 46 -50 46 -3
0 -16 -7 -28 -16z m56 -21 c2 -9 -8 -13 -32 -13 -28 0 -34 3 -29 16 7 18 54
16 61 -3z"/>
<path d="M3241 2543 c-1 -16 41 -103 50 -103 8 0 52 100 46 106 -2 2 -12 -14
-22 -36 -10 -22 -21 -40 -25 -40 -3 0 -16 19 -27 43 -12 23 -22 36 -22 30z"/>
<path d="M3402 2534 c-28 -20 -30 -69 -3 -84 26 -13 58 -13 67 1 4 7 0 9 -14
5 -23 -8 -62 8 -62 24 0 6 20 10 45 10 33 0 45 4 45 14 0 13 -36 46 -50 46 -3
0 -16 -7 -28 -16z m56 -21 c2 -9 -8 -13 -32 -13 -28 0 -34 3 -29 16 7 18 54
16 61 -3z"/>
<path d="M3620 2530 c-11 -11 -20 -28 -20 -38 0 -24 31 -52 57 -52 23 0 53 30
53 53 0 21 -35 57 -55 57 -8 0 -24 -9 -35 -20z m68 -37 c2 -25 -1 -33 -18 -38
-26 -8 -50 10 -50 40 0 29 9 37 40 33 20 -2 26 -9 28 -35z"/>
<path d="M3772 2475 c1 -44 3 -68 5 -52 4 23 8 26 28 21 36 -9 65 12 65 46 0
38 -39 67 -69 51 -14 -8 -21 -8 -24 2 -3 6 -5 -24 -5 -68z m78 40 c27 -32 -23
-82 -55 -55 -15 13 -20 51 -8 63 12 12 50 7 63 -8z"/>
<path d="M3936 2537 c-21 -16 -24 -60 -6 -82 14 -17 66 -20 75 -5 4 7 -2 9
-19 4 -26 -6 -56 9 -56 27 0 5 20 9 45 9 49 0 55 10 25 40 -23 23 -39 25 -64
7z m62 -24 c2 -9 -8 -13 -32 -13 -34 0 -44 8 -29 24 11 11 56 2 61 -11z"/>
<path d="M4093 2542 c-20 -3 -23 -9 -23 -53 0 -27 5 -49 10 -49 6 0 10 18 10
40 0 27 5 42 17 49 22 12 15 18 -14 13z"/>
<path d="M1967 2283 c48 -334 288 -533 644 -533 128 0 199 19 295 79 36 23 74
41 85 41 21 0 39 -35 39 -76 0 -17 5 -24 20 -24 19 0 20 7 20 230 0 223 -1
230 -20 230 -21 0 -25 -10 -35 -98 -11 -100 -43 -181 -92 -233 -122 -131 -319
-141 -424 -21 -59 67 -109 216 -125 375 l-6 67 -204 0 -203 0 6 -37z"/>
<path d="M3750 2158 c-34 -90 -78 -193 -98 -231 -35 -67 -81 -117 -108 -117
-8 0 -14 -8 -14 -18 0 -17 14 -18 185 -20 158 -1 185 1 185 14 0 16 -7 19 -64
29 -23 4 -51 18 -68 35 -24 24 -28 36 -28 82 0 61 9 99 52 221 l30 87 182 0
182 0 16 -47 c9 -27 37 -108 63 -181 29 -83 45 -143 41 -157 -6 -24 -41 -42
-91 -47 -18 -2 -31 -9 -33 -19 -2 -14 31 -16 308 -16 288 0 310 1 310 17 0 10
-8 20 -18 22 -37 10 -72 76 -154 288 l-83 215 -194 3 c-190 2 -193 2 -188 -18
5 -19 1 -20 -158 -20 -158 0 -163 1 -158 20 4 15 0 20 -14 20 -17 0 -31 -29
-83 -162z"/>
</g>
</svg>
