<?xml version="1.0" standalone="no"?>
<!DOCTYPE svg PUBLIC "-//W3C//DTD SVG 20010904//EN"
 "http://www.w3.org/TR/2001/REC-SVG-20010904/DTD/svg10.dtd">
<svg version="1.0" xmlns="http://www.w3.org/2000/svg"
 width="512.000000pt" height="512.000000pt" viewBox="0 0 512.000000 512.000000"
 preserveAspectRatio="xMidYMid meet">

<g transform="translate(0.000000,512.000000) scale(0.100000,-0.100000)"
fill="#000000" stroke="none">
<path d="M2395 4794 c-400 -42 -729 -154 -1030 -351 -138 -90 -213 -150 -334
-268 -380 -367 -606 -811 -688 -1345 -24 -159 -24 -491 0 -650 79 -519 300
-964 656 -1321 219 -218 500 -401 776 -504 117 -43 155 -43 198 5 l27 30 0
216 0 216 -32 -6 c-18 -3 -87 -9 -153 -12 -92 -5 -136 -2 -189 10 -171 40
-293 138 -365 291 -103 217 -146 278 -257 360 -86 64 -107 96 -80 123 13 13
34 17 89 17 130 -1 239 -75 344 -233 100 -150 191 -218 324 -242 76 -14 147
-7 252 26 61 20 77 29 77 44 0 43 50 173 88 229 l41 60 -47 6 c-466 65 -755
266 -882 613 -58 159 -74 265 -74 487 0 188 2 205 27 288 33 106 90 222 150
299 l43 58 -19 72 c-35 135 -26 320 24 476 l21 62 60 0 c33 0 88 -7 122 -16
76 -19 261 -107 358 -170 l73 -47 55 12 c324 72 633 79 920 20 52 -11 109 -22
125 -25 24 -5 47 5 120 51 181 114 342 175 460 175 l61 0 22 -67 c11 -38 26
-99 33 -137 15 -88 6 -283 -16 -354 l-16 -53 29 -37 c86 -109 147 -238 179
-373 22 -98 22 -356 -1 -491 -55 -331 -210 -563 -462 -695 -142 -74 -267 -111
-496 -148 l-37 -6 35 -46 c46 -60 59 -86 86 -174 22 -71 22 -88 23 -474 1
-431 0 -428 54 -457 40 -21 100 -13 201 28 674 272 1177 850 1355 1559 53 212
69 342 69 580 0 396 -70 695 -246 1050 -109 218 -229 386 -412 573 -344 352
-776 574 -1256 647 -103 15 -405 27 -485 19z"/>
</g>
</svg>
