<svg version="1.1" id="Layer_1" xmlns="http://www.w3.org/2000/svg" xmlns:xlink="http://www.w3.org/1999/xlink" x="0px" y="0px"
	 width="100%" viewBox="0 0 496 208" enable-background="new 0 0 496 208" xml:space="preserve">
<path fill="#000000" opacity="1.000000" stroke="none" 
	d="
M85.310379,41.870193 
	C99.981995,40.977268 113.245476,43.556442 125.030670,52.120842 
	C129.371017,55.275017 131.509521,54.236160 132.646790,49.011711 
	C132.788086,48.362652 132.804321,47.686737 132.939026,47.035789 
	C133.277115,45.401974 134.089920,44.273590 135.964157,44.378052 
	C137.996704,44.491333 138.312363,45.898808 138.302994,47.523899 
	C138.249207,56.855145 138.200897,66.186462 138.120850,75.517494 
	C138.103867,77.497879 137.630035,79.140785 135.139618,79.294518 
	C132.617020,79.450226 131.214478,78.703270 130.622986,75.930023 
	C127.509590,61.332691 119.089958,51.889359 103.985367,49.108128 
	C92.711899,47.032330 83.705261,50.727077 76.763237,59.687126 
	C69.565826,68.976799 67.035049,80.024864 65.485825,91.280891 
	C63.222992,107.721634 64.119659,124.129280 67.424263,140.369003 
	C68.861053,147.429794 71.343109,154.172882 75.932365,159.887421 
	C81.256271,166.516769 87.983078,169.629440 96.605080,167.722427 
	C100.896965,166.773148 103.539757,164.153107 103.627716,159.822784 
	C103.817139,150.497681 103.902008,141.154114 103.516266,131.839355 
	C103.250656,125.425591 99.892715,122.603073 93.589378,121.140778 
	C91.058693,120.553688 86.106255,122.007866 86.604179,117.762299 
	C87.058319,113.890007 91.612396,115.853897 94.287880,115.822983 
	C110.448616,115.636246 126.612450,115.681831 142.774979,115.735550 
	C144.613297,115.741653 147.131348,114.809013 147.962158,117.409798 
	C148.854675,120.203659 146.106766,120.451622 144.533569,121.439919 
	C141.768417,123.176987 141.314545,125.893211 141.316116,128.834839 
	C141.322418,140.665878 141.377106,152.497559 141.252930,164.327316 
	C141.231201,166.396439 142.455872,169.542603 139.010132,170.047577 
	C135.897293,170.503754 136.142563,167.505341 135.483566,165.573593 
	C133.784180,160.592148 131.828445,159.635773 126.277870,161.747696 
	C117.582741,165.056122 109.466377,169.918610 100.186691,171.651428 
	C81.274712,175.182907 63.302238,172.459335 46.946308,162.238190 
	C34.061562,154.186249 27.241251,141.708237 24.428337,127.059624 
	C20.955633,108.975060 21.512115,91.203957 30.760778,74.688889 
	C41.399616,55.691418 58.337883,45.964947 79.408806,42.668911 
	C81.216209,42.386189 83.032990,42.163464 85.310379,41.870193 
z"/>
<path fill="#000000" opacity="1.000000" stroke="none" 
	d="
M408.922058,123.349327 
	C401.769318,123.347092 395.099670,123.462128 388.437317,123.291641 
	C385.325531,123.212013 383.545319,124.230164 382.485321,127.276062 
	C380.024139,134.348083 377.263672,141.300781 375.807465,148.700409 
	C373.890259,158.442642 377.257874,163.678375 386.981018,165.576736 
	C388.664581,165.905441 391.137085,165.323273 391.022461,168.081863 
	C390.891602,171.231384 388.164612,170.300323 386.403381,170.315796 
	C376.737732,170.400726 367.070648,170.348618 357.404327,170.295029 
	C356.142212,170.288010 354.588806,170.594650 354.008179,168.928925 
	C353.597565,167.750839 353.716644,166.503799 354.930359,165.861099 
	C364.926300,160.567932 367.407959,150.284424 371.332275,141.027832 
	C374.386047,133.824722 377.013153,126.441292 379.862274,119.150665 
	C382.025238,113.615814 383.044281,113.412163 386.905426,117.731438 
	C387.975006,118.927902 389.345917,118.619064 390.627075,118.626495 
	C396.793488,118.662262 402.960449,118.664139 409.126770,118.617882 
	C412.026123,118.596130 415.117340,119.304543 416.764343,115.569939 
	C417.384583,114.163528 419.475769,114.650383 420.944824,114.647537 
	C431.111389,114.627815 441.280548,114.775375 451.443298,114.579269 
	C454.902924,114.512520 456.446167,115.920647 457.593628,119.003479 
	C461.775482,130.238693 466.167358,141.396332 470.541473,152.559143 
	C472.559265,157.708572 474.718262,162.804565 480.059540,165.536484 
	C481.424377,166.234558 482.092194,167.363037 481.632996,168.812241 
	C481.024597,170.732315 479.233978,170.324371 477.816132,170.325623 
	C464.816284,170.337082 451.816376,170.285049 438.816498,170.271652 
	C433.483246,170.266159 428.149567,170.353363 422.816925,170.304138 
	C421.252563,170.289703 419.150360,170.676788 419.057129,168.184280 
	C418.967651,165.792450 420.927124,165.927811 422.580017,165.660645 
	C430.945679,164.308380 432.527924,161.767868 429.768311,153.728821 
	C427.282288,146.486755 424.556549,139.327347 421.992065,132.111740 
	C418.167633,121.351166 419.223846,123.645523 408.922058,123.349327 
z"/>
<path fill="#000000" opacity="1.000000" stroke="none" 
	d="
M224.683365,163.434601 
	C207.948807,153.000305 199.676849,137.729279 196.965729,118.973816 
	C196.526871,115.937851 197.481522,114.617950 200.581314,114.631187 
	C211.902039,114.679535 223.223190,114.679298 234.543945,114.635422 
	C239.879776,114.614746 238.928680,118.917572 239.161118,121.809746 
	C239.914154,131.180023 242.016846,140.201599 245.468613,148.888260 
	C248.458267,156.412064 253.179520,162.523544 261.128296,165.391342 
	C276.601044,170.973740 294.326813,161.653992 299.542511,145.141464 
	C301.296295,139.589127 302.178528,133.832886 302.677307,128.029938 
	C302.850586,126.013962 302.754669,123.767189 305.668701,123.813400 
	C308.731964,123.861961 308.285858,126.283356 308.315216,128.192642 
	C308.507019,140.664963 307.801605,153.153259 309.126007,165.607803 
	C309.322693,167.457626 309.721375,169.862946 306.730591,170.218765 
	C303.764313,170.571671 303.837189,168.245422 303.321564,166.350067 
	C301.705841,160.410995 300.062866,159.580002 295.006500,162.963135 
	C271.770569,178.509918 248.445435,175.047699 224.683365,163.434601 
z"/>
<path fill="#000000" opacity="1.000000" stroke="none" 
	d="
M307.665466,78.453209 
	C302.953186,80.538361 301.442902,78.165321 300.608215,74.283318 
	C297.683655,60.681717 289.176208,52.385067 275.797607,49.183426 
	C264.543427,46.490181 253.541107,51.607910 247.865829,61.761345 
	C245.412323,66.150818 243.691132,70.831795 242.393005,75.670074 
	C241.892944,77.533882 241.364853,79.299377 238.998489,79.303368 
	C227.203354,79.323242 215.408173,79.312447 203.827332,79.312447 
	C202.611130,76.717834 204.104752,75.293449 204.956406,73.787163 
	C215.224823,55.625973 231.358017,46.144005 251.444199,42.711330 
	C267.556061,39.957851 282.567230,42.400097 295.977783,52.424480 
	C299.532684,55.081772 301.441742,54.146343 302.823975,49.751945 
	C303.172913,48.642681 303.446259,47.504585 303.675323,46.363880 
	C304.002197,44.736153 305.118317,44.193676 306.583679,44.247585 
	C308.413544,44.314903 309.331940,45.416771 309.228546,47.183926 
	C308.985504,51.336502 308.523743,55.478653 308.364868,59.633221 
	C308.129730,65.782669 308.080322,71.939224 307.665466,78.453209 
z"/>
<path fill="#000000" opacity="1.000000" stroke="none" 
	d="
M439.498169,72.539818 
	C440.311005,74.725060 441.516266,76.430084 441.064880,78.952545 
	C426.212494,78.952545 411.428467,78.952545 396.833557,78.952545 
	C395.794220,77.265030 396.517090,76.075340 396.998016,74.859573 
	C400.481110,66.054291 404.043854,57.279125 407.395050,48.423916 
	C408.431946,45.684067 409.966614,44.671963 412.921204,44.598316 
	C428.417755,44.212063 428.414307,44.136181 433.915466,58.259586 
	C435.724609,62.904224 437.544189,67.544800 439.498169,72.539818 
z"/>
<path fill="#000000" opacity="1.000000" stroke="none" 
	d="
M306.949707,96.779984 
	C304.609528,102.790199 300.095764,105.534897 294.679779,103.104988 
	C289.820679,100.924927 293.570770,95.734787 292.649323,92.007500 
	C292.178894,90.104469 292.780304,88.545517 295.277191,88.122955 
	C301.619019,87.049683 305.748138,89.858772 306.949707,96.779984 
M301.570740,91.800217 
	C299.245697,91.006195 296.736755,90.392166 295.750183,93.417267 
	C295.054443,95.550507 294.502380,98.233353 296.470062,99.988831 
	C298.107239,101.449440 300.335358,101.030357 301.973663,99.627678 
	C304.149139,97.765152 304.502472,95.440735 302.880493,92.962128 
	C302.701660,92.688805 302.431458,92.475235 301.570740,91.800217 
z"/>
<path fill="#000000" opacity="1.000000" stroke="none" 
	d="
M376.697998,94.773125 
	C378.402802,90.135437 381.999664,91.683678 384.728302,92.128487 
	C387.606720,92.597702 389.017700,95.149124 388.823914,98.124184 
	C388.614716,101.335640 387.016418,103.640556 383.515747,103.328362 
	C380.535950,103.062614 380.023254,105.916428 377.768585,107.333939 
	C375.895691,103.211960 376.320160,99.200851 376.697998,94.773125 
M382.179230,94.815262 
	C380.134766,96.117302 378.814026,97.702682 381.012115,99.855263 
	C382.454376,101.267677 384.192017,100.954292 385.096802,99.227623 
	C386.323242,96.887039 385.620453,95.138947 382.179230,94.815262 
z"/>
<path fill="#000000" opacity="1.000000" stroke="none" 
	d="
M222.634674,88.205627 
	C224.196213,88.703926 225.737717,88.693642 225.872299,90.758484 
	C223.974167,92.495209 220.893158,90.021996 218.948807,92.605392 
	C220.658356,96.058243 228.590317,94.171532 226.633453,100.770042 
	C225.720047,103.850052 222.810196,103.477867 220.318970,103.462921 
	C218.214478,103.450294 215.877945,103.699745 215.742828,100.588646 
	C218.102768,98.781532 220.778595,102.109985 223.101868,99.560936 
	C221.256439,96.305359 214.205383,97.052589 215.997849,91.173195 
	C216.851410,88.373428 219.661469,88.120628 222.634674,88.205627 
z"/>
<path fill="#000000" opacity="1.000000" stroke="none" 
	d="
M401.624908,99.011841 
	C399.800385,99.143341 398.332855,99.214523 396.407867,99.307899 
	C398.035156,101.513931 400.180145,99.458420 402.097656,101.126411 
	C400.744995,104.158554 397.907745,103.693375 395.708130,103.087631 
	C392.580597,102.226372 391.258301,99.548927 391.894501,96.430908 
	C392.534149,93.295891 394.776428,91.615730 398.055115,91.759232 
	C400.418976,91.862686 402.112213,93.212959 403.130035,95.286812 
	C403.859283,96.772720 403.912384,98.216866 401.624908,99.011841 
z"/>
<path fill="#000000" opacity="1.000000" stroke="none" 
	d="
M251.361572,96.061371 
	C251.059174,99.377396 253.696457,104.092262 247.168045,103.415306 
	C244.696426,103.159004 241.628510,103.756004 241.216492,100.395660 
	C240.753479,96.619690 244.075180,96.654388 246.753113,96.258347 
	C245.928207,94.012802 243.122391,95.901703 242.340591,93.925003 
	C246.197632,90.358658 248.388382,90.798798 251.361572,96.061371 
z"/>
<path fill="#000000" opacity="1.000000" stroke="none" 
	d="
M315.550171,99.150284 
	C315.687561,102.781227 318.916595,98.983826 320.115875,101.315445 
	C318.737823,104.478500 315.829559,103.583839 313.594055,102.979584 
	C310.892365,102.249321 309.799988,99.719170 310.073212,97.059738 
	C310.371796,94.153809 312.129120,92.182251 315.183136,91.791374 
	C317.779510,91.459068 320.029114,92.471527 320.810944,94.922890 
	C322.386017,99.861443 318.361298,98.704346 315.550171,99.150284 
z"/>
<path fill="#000000" opacity="1.000000" stroke="none" 
	d="
M347.669678,98.648308 
	C345.730133,98.989746 344.156281,99.198685 342.385254,99.433807 
	C343.830841,102.126472 346.433624,99.444359 348.005951,101.487793 
	C345.714294,104.393555 342.790558,104.036140 340.383545,102.239670 
	C337.723236,100.254158 337.131592,97.192520 339.164917,94.280365 
	C341.025574,91.615532 343.774719,90.835602 346.579590,92.544090 
	C348.746674,93.864098 350.582703,95.795776 347.669678,98.648308 
z"/>
<path fill="#000000" opacity="1.000000" stroke="none" 
	d="
M269.805847,101.196960 
	C269.945801,96.533463 268.931885,92.139717 270.442078,87.553780 
	C273.693848,89.493462 271.187134,92.677986 273.608215,94.277855 
	C275.800690,94.789192 276.788635,91.502899 280.160248,92.295677 
	C276.634979,95.915009 277.695801,99.429527 280.853546,102.762352 
	C277.142151,104.060959 276.711395,100.257462 274.102142,99.951691 
	C272.254150,98.519615 272.904510,105.350342 269.805847,101.196960 
z"/>
<path fill="#000000" opacity="1.000000" stroke="none" 
	d="
M177.365570,101.487167 
	C176.117645,96.953362 176.183746,96.078835 177.927002,92.111557 
	C180.123993,93.141968 179.530258,95.038223 179.482574,96.716393 
	C179.430969,98.532600 179.836655,100.280975 181.946182,100.316498 
	C183.989685,100.350906 184.543747,98.636703 184.713638,96.844955 
	C184.861649,95.283707 184.463013,93.528625 186.321686,92.026009 
	C188.816788,95.640656 189.314484,100.034744 186.975632,102.525864 
	C184.981247,104.650063 180.549133,104.592514 177.365570,101.487167 
z"/>
<path fill="#000000" opacity="1.000000" stroke="none" 
	d="
M161.680801,97.759109 
	C161.682419,96.642525 161.685150,95.979179 161.685287,95.315842 
	C161.686829,87.771324 164.777649,86.031410 172.449921,89.432594 
	C171.022293,92.715210 165.924606,89.343636 165.014954,93.296120 
	C166.285324,96.161591 170.090179,93.645782 171.261444,96.489830 
	C165.279037,98.402458 165.279037,98.402458 163.309509,102.931412 
	C161.034271,101.931152 161.972992,99.849648 161.680801,97.759109 
z"/>
<path fill="#000000" opacity="1.000000" stroke="none" 
	d="
M360.777588,95.724396 
	C362.388184,92.509834 364.796509,91.326797 367.906586,91.862663 
	C370.240051,92.264702 371.779785,93.821075 372.203857,96.148567 
	C372.597290,98.307861 372.570923,100.524040 370.635223,102.096420 
	C368.469574,103.855629 365.904724,103.875183 363.590546,102.805321 
	C360.847595,101.537262 360.052307,99.023628 360.777588,95.724396 
M364.051636,96.437714 
	C363.021027,98.346039 363.934418,99.576149 365.584717,100.360420 
	C366.968506,101.018044 368.136963,100.410072 368.930237,99.201675 
	C369.717041,98.003128 369.821320,96.698006 368.756958,95.624634 
	C367.264191,94.119202 365.812225,94.851135 364.051636,96.437714 
z"/>
<path fill="#000000" opacity="1.000000" stroke="none" 
	d="
M329.998901,103.072189 
	C326.065918,100.366165 325.395477,96.386154 324.360260,92.069305 
	C328.099792,92.242355 327.542053,96.169380 330.022339,97.020584 
	C332.376984,96.269432 331.912994,92.810097 334.422485,92.134895 
	C335.479431,95.376183 334.202545,98.820000 329.998901,103.072189 
z"/>
<path fill="#000000" opacity="1.000000" stroke="none" 
	d="
M261.523621,94.695602 
	C259.030121,95.053955 257.890503,96.424355 258.424744,98.529228 
	C259.304169,101.994270 262.588226,100.034851 264.978699,100.738724 
	C263.944611,104.284470 261.335632,103.504417 259.348389,103.142372 
	C256.577484,102.637558 255.201157,100.438667 255.062393,97.747650 
	C254.930984,95.199051 256.311646,93.247658 258.633972,92.278625 
	C261.295746,91.167961 263.717560,91.466667 265.362091,94.153351 
	C264.263245,96.301231 262.973785,94.777977 261.523621,94.695602 
z"/>
<path fill="#000000" opacity="1.000000" stroke="none" 
	d="
M234.666214,99.163254 
	C235.301315,100.707138 237.257095,100.659790 237.284103,102.621109 
	C235.372147,103.990082 233.471786,104.021812 231.892258,101.982605 
	C230.225052,99.830170 230.834183,91.838707 232.804230,90.021729 
	C234.096741,90.858391 235.434357,91.724258 237.049820,92.769974 
	C235.643906,94.681129 233.559631,96.227348 234.666214,99.163254 
z"/>
<path fill="#000000" opacity="1.000000" stroke="none" 
	d="
M412.409698,91.914536 
	C413.044891,92.168877 413.504608,92.536819 413.500977,92.541481 
	C411.067230,95.645180 409.941711,99.292969 409.847992,104.232674 
	C405.850952,100.657867 407.316132,97.431610 407.577637,94.435204 
	C407.831909,91.521767 410.121613,92.003540 412.409698,91.914536 
z"/>
<path fill="#000000" opacity="1.000000" stroke="none" 
	d="
M192.633728,95.997948 
	C192.903412,93.050331 191.950241,90.329140 194.683746,86.837257 
	C195.677277,93.014992 196.514801,97.848480 194.883911,103.371635 
	C191.606491,101.319527 193.064392,98.615555 192.633728,95.997948 
z"/>
<path fill="#000000" opacity="1.000000" stroke="none" 
	d="
M356.430054,95.418457 
	C356.605927,98.095612 357.078369,100.407219 354.722687,103.469200 
	C353.089844,97.829773 353.461517,93.175659 354.425171,87.294151 
	C357.074524,90.248199 356.041260,92.791389 356.430054,95.418457 
z"/>
<path fill="#000000" opacity="1.000000" stroke="none" 
	d="
M200.631180,99.680389 
	C200.835800,95.532059 200.176025,91.755745 201.960480,88.166847 
	C204.106461,92.928001 203.217514,97.766487 203.109726,102.640434 
	C200.539917,102.595924 200.866837,101.184158 200.631180,99.680389 
z"/>
</svg>